<?xml version="1.0" encoding="utf-8"?>
<svg version="1.1" id="Layer_1" xmlns="http://www.w3.org/2000/svg" xmlns:xlink="http://www.w3.org/1999/xlink" x="0px" y="0px" viewBox="0 0 281.5 204.4" style="enable-background:new 0 0 281.5 204.4;" xml:space="preserve">
    <style type="text/css">
    .st0 {
        fill: #ffffff;
        stroke: #000000;
        stroke-width: 2;
        stroke-linejoin: bevel;
        stroke-miterlimit: 10;
        stroke-dasharray: 2000;
        stroke-dashoffset:0;
        animation: dash 3s linear forwards;
    }

    @keyframes dash {
      from {
        stroke-dashoffset: 2000;
      }
      to {
        stroke-dashoffset: 0;
        fill: #ffeb3b;
      }
    }
    .st1, .st2, .st3, .st4 {
        fill: transparent;
        stroke: #000000;
        stroke-width: 2;
        stroke-miterlimit: 10;
    }

    .st3, .st4 {
      animation: fillColor 3s linear forwards;
    }

    @keyframes fillColor {
      to {
        fill: rgba(0, 0, 0, 0.8);
      }
    }
    </style>
    <path class="st0" d="M88.7,1.1c14.7,0,29.3,0.2,44-0.1c4.2-0.1,5.4,1.1,5.3,5.3c-0.2,25.2,0,50.3-0.2,75.5c0,3.8,1,6.7,3.4,9.5
  c7.4,8.7,14.8,17.4,22.1,26.2c1.6,1.9,2.6,2.4,3.9-0.2c1.1-2.1,2.4-4,3.7-5.9c4.8-7.3,4.8-7.3-0.8-13.8c-5.3-6.1-10.6-12.3-16-18.3
  c-1.8-2-1.9-3.6-0.6-5.7c10.6-16.7,21.1-33.4,31.7-50.1c4-6.3,8.2-12.4,11.9-18.8c1.4-2.5,2.9-3.6,5.8-3.6c17.7,0.1,35.3,0.1,53,0
  c3.9,0,3.7,1.1,1.9,3.9c-7.7,11.9-14.9,24-22.8,35.8c-7,10.5-13.1,21.6-20.1,32.2c-5.9,8.8-11,18.1-16.6,27c-1.5,2.4-1,3.7,0.6,5.6
  c18.8,22,37.5,44,56.3,66c8.1,9.6,16.3,19.1,24.4,28.7c0.5,0.6,1.4,1.2,1,2.1c-0.5,1.2-1.7,0.9-2.6,0.9c-4.7,0.1-9.3,0-14,0
  c-14.8,0-29.7-0.2-44.5,0.2c-4.7,0.1-7.4-2.1-9.9-5.1c-12.8-15.1-25.6-30.3-38.2-45.6c-2.5-3-4.3-2.2-5.8,0.3
  c-6.5,10.7-14.7,19.9-24.1,28.1c-11.3,9.8-24,16.7-38.7,20.2c-18.7,4.5-36.3,0.8-53.1-6.8c-6.9-3.1-12.9-8.2-18.9-13.2
  c-11.5-9.6-18.8-21.4-24.1-34.9c-3.5-8.9-5.1-18.2-5.3-27.7c-0.2-9.2,0.1-18.3-0.1-27.5c-0.1-3,0.9-4,4-4c26.5,0.1,53,0.1,79.5,0
  c3,0,4.1,1.1,4.1,4.1c-0.1,8.5-0.1,17,0,25.5c0,3-1.1,4.4-4.4,4.5c-12.9,0.5-13.1,0.6-13.1-12.6c0-3.7-0.8-5.1-5-4.9
  c-14,0.4-28,0.3-42,0.1c-4,0-5.3,1.1-5.5,5.4c-0.4,15.5,1.6,30.3,10,43.9c8.1,12.9,19,22.2,33,28.1c11.3,4.7,23,5.4,34.7,3.8
  c11.5-1.6,22.2-6.3,31-14.4c10.2-9.3,19.7-19,26.3-31.4c1.6-3,1.9-4.9-0.4-7.5c-4.1-4.5-7.8-9.4-11.7-14c-0.7-0.8-1.2-2.4-2.6-1.9
  c-1.6,0.5-1.2,2.2-1.2,3.5c-0.2,8.6-2.4,16.6-6.6,24.2c-9.1,16.5-31.7,27.7-51.3,24.4C60.5,164.5,47.9,154,40,136.9
  c-1.7-3.7-2.9-7.7-3.2-11.9c-0.2-2.5,0.5-3.9,3.3-3.6c0.3,0,0.7,0.1,1,0c7.2-0.8,11.9-0.3,15.1,8.9c6.3,18.1,22.6,24.1,39.3,20.2
  c14.6-3.4,24.1-14.6,25.3-30.7c0.6-7.8-0.2-15.7,0.2-23.5c0.3-4.3-2.9-6.3-4.9-8.8c-8.8-10.7-18.2-20.9-27-31.6
  c-2.4-2.9-5.1-3.9-8.6-3.9c-12.5,0-25-0.2-37.5,0c-3.4,0.1-4.3-1.1-4.2-4.3c0.1-14.2,0.2-28.3-0.1-42.5c-0.1-4,1.5-4.6,5-4.6
  C58.7,1.2,73.7,1.1,88.7,1.1C88.7,1.1,88.7,1.1,88.7,1.1z M90,17.5c-8.2,0-14.5,0-20.9,0c-14,0-13.9,0-13.5,14
  c0.1,3.2,1.2,3.9,4.2,3.9c7.8-0.2,15.7,0.6,23.4-0.2c8.3-0.9,13.5,2.3,18.1,8.9c4.8,6.8,10.6,13,16.1,19.3c0.6,0.7,1.5,1.5,2.4,1.6
  c1,0.1,1-1.1,1-1.9c0-14.3,0.1-28.6,0-42.9c0-1.6-0.6-3.5-2.9-3.2C108.1,18.2,98.1,17,90,17.5z M230.7,186.2c1.7,0,2.2,0.1,2.7,0
  c3.1-0.6,7.8,1.8,9-1.3c0.9-2.4-3.2-5.2-5.3-7.7c-10.3-12-20.4-24.2-30.6-36.2c-5.7-6.7-11.4-13.3-17.1-19.9
  c-2.6-3.1-4.4-2.7-5.9,1.1c-0.8,2.3-1.8,4.7-3.4,6.5c-3.6,4-1.7,6.9,1.1,10.2c10.1,11.7,19.9,23.7,30.3,35.3
  C216.9,180.1,220.6,189.8,230.7,186.2z M218.9,17.5c-2.7,0-4.9,0.1-7,0c-2.3-0.2-3.7,1.1-4.8,2.9c-9.1,14.4-18.2,28.9-27.4,43.2
  c-7.3,11.3-7.4,11.2,1.6,21.6c2.5,2.8,4,3.1,6.3-0.5c12-19.3,24.3-38.3,36.2-57.6c1.6-2.6,5.7-5.3,4-8.2
  C226,15.8,221.6,18.1,218.9,17.5z" />
    <path class="st2" d="M90,17.5c8-0.5,18,0.8,27.9-0.6c2.3-0.3,2.9,1.6,2.9,3.2c0.1,14.3,0,28.6,0,42.9c0,0.8,0,2-1,1.9
  c-0.8-0.1-1.8-0.9-2.4-1.6C112,57,106.2,50.8,101.4,44c-4.6-6.6-9.8-9.8-18.1-8.9c-7.7,0.8-15.6,0-23.4,0.2
  c-2.9,0.1-4.1-0.7-4.2-3.9c-0.4-14-0.5-14,13.5-14C75.5,17.5,81.8,17.5,90,17.5z" />
    <path class="st3" d="M230.7,186.2c-10.1,3.6-13.8-6.1-19.3-12.2c-10.3-11.5-20.1-23.5-30.3-35.3c-2.8-3.2-4.6-6.2-1.1-10.2
  c1.6-1.8,2.6-4.2,3.4-6.5c1.4-3.9,3.2-4.2,5.9-1.1c5.7,6.6,11.4,13.3,17.1,19.9c10.2,12.1,20.4,24.2,30.6,36.2
  c2.1,2.5,6.3,5.3,5.3,7.7c-1.2,3.1-5.9,0.7-9,1.3C233,186.3,232.5,186.2,230.7,186.2z" />
    <path class="st4" d="M218.9,17.5c2.7,0.6,7.1-1.7,8.9,1.3c1.7,3-2.4,5.6-4,8.2c-11.9,19.3-24.2,38.4-36.2,57.6
  c-2.2,3.6-3.8,3.3-6.3,0.5c-9.1-10.4-9-10.3-1.6-21.6c9.3-14.3,18.3-28.8,27.4-43.2c1.1-1.7,2.5-3,4.8-2.9
  C214,17.6,216.2,17.5,218.9,17.5z" />
</svg>
